<?xml version="1.0" encoding="utf-8"?>
<!-- Generator: Adobe Illustrator 16.0.0, SVG Export Plug-In . SVG Version: 6.00 Build 0)  -->
<!DOCTYPE svg PUBLIC "-//W3C//DTD SVG 1.1//EN" "http://www.w3.org/Graphics/SVG/1.1/DTD/svg11.dtd" [
	<!ENTITY ns_extend "http://ns.adobe.com/Extensibility/1.0/">
	<!ENTITY ns_ai "http://ns.adobe.com/AdobeIllustrator/10.0/">
	<!ENTITY ns_graphs "http://ns.adobe.com/Graphs/1.0/">
	<!ENTITY ns_vars "http://ns.adobe.com/Variables/1.0/">
	<!ENTITY ns_imrep "http://ns.adobe.com/ImageReplacement/1.0/">
	<!ENTITY ns_sfw "http://ns.adobe.com/SaveForWeb/1.0/">
	<!ENTITY ns_custom "http://ns.adobe.com/GenericCustomNamespace/1.0/">
	<!ENTITY ns_adobe_xpath "http://ns.adobe.com/XPath/1.0/">
]>
<svg version="1.1" id="Layer_1" xmlns:x="&ns_extend;" xmlns:i="&ns_ai;" xmlns:graph="&ns_graphs;"
	 xmlns="http://www.w3.org/2000/svg" xmlns:xlink="http://www.w3.org/1999/xlink" x="0px" y="0px" width="145px" height="78.5px"
	 viewBox="0 0 145 78.5" enable-background="new 0 0 145 78.5" xml:space="preserve">
<metadata>
	<sfw  xmlns="&ns_sfw;">
		<slices></slices>
		<sliceSourceBounds  width="16383" height="16383" bottomLeftOrigin="true" y="-8334" x="-8049"></sliceSourceBounds>
		<optimizationSettings>
			<targetSettings  targetSettingsID="0" fileFormat="PNG24Format">
				<PNG24Format  transparency="true" noMatteColor="false" filtered="false" interlaced="false" matteColor="#FFFFFF">
					</PNG24Format>
			</targetSettings>
		</optimizationSettings>
	</sfw>
</metadata>
<g>
	<g>
		<g>
			<path fill="#17365B" d="M13.009,62.663c0.029,0.04,0.093,0.132,0.192,0.274c0.099,0.144,0.223,0.318,0.371,0.524
				c0.148,0.207,0.314,0.436,0.498,0.687c0.184,0.25,0.37,0.505,0.559,0.764c0.189,0.26,0.375,0.513,0.555,0.761
				c0.181,0.247,0.344,0.473,0.489,0.677s0.27,0.374,0.372,0.511c0.102,0.138,0.165,0.224,0.188,0.258
				c0.011-0.017,0.064-0.092,0.157-0.223c0.093-0.131,0.211-0.295,0.354-0.493c0.143-0.198,0.305-0.424,0.485-0.678
				c0.181-0.253,0.367-0.511,0.56-0.772c0.192-0.263,0.38-0.521,0.563-0.778c0.183-0.256,0.352-0.489,0.506-0.698
				c0.154-0.21,0.284-0.388,0.389-0.533c0.104-0.146,0.171-0.239,0.201-0.279v6.648h-1.145v-3.25c0-0.047,0.006-0.097,0.018-0.148
				c0.012-0.053,0.018-0.085,0.018-0.097l-2.105,3.032c-0.029-0.035-0.101-0.131-0.214-0.288c-0.113-0.157-0.249-0.344-0.406-0.56
				s-0.323-0.447-0.498-0.694c-0.175-0.248-0.339-0.478-0.494-0.69s-0.285-0.394-0.393-0.542s-0.167-0.234-0.179-0.258
				c0,0.012,0.006,0.044,0.018,0.097c0.012,0.052,0.018,0.102,0.018,0.148v3.25h-1.075V62.663z"/>
			<path fill="#17365B" d="M24.76,69.312v-6.369h4.229v0.97h-3.163v1.713h2.813v0.995h-2.813v1.695h3.285v0.996H24.76z"/>
			<path fill="#17365B" d="M34.013,62.942h1.651c0.641,0,1.184,0.098,1.629,0.293c0.445,0.195,0.808,0.446,1.088,0.756
				c0.279,0.309,0.482,0.659,0.607,1.053c0.125,0.393,0.188,0.784,0.188,1.175c0,0.478-0.086,0.907-0.258,1.289
				c-0.172,0.381-0.403,0.706-0.694,0.974c-0.292,0.268-0.631,0.474-1.018,0.616s-0.796,0.214-1.228,0.214h-1.966V62.942z
				 M35.812,68.298c0.332,0,0.638-0.046,0.917-0.14c0.279-0.093,0.521-0.231,0.725-0.415c0.204-0.184,0.362-0.407,0.476-0.673
				c0.114-0.265,0.17-0.572,0.17-0.922c0-0.396-0.068-0.732-0.205-1.009c-0.137-0.276-0.311-0.501-0.52-0.673
				c-0.21-0.172-0.443-0.297-0.699-0.376c-0.256-0.078-0.501-0.117-0.734-0.117h-0.856v4.324H35.812z"/>
			<path fill="#17365B" d="M44.086,62.942h1.075v6.369h-1.075V62.942z"/>
			<path fill="#17365B" d="M54.291,62.942v1.022h-1.572v5.347h-1.075v-5.347h-1.538v-1.022H54.291z"/>
			<path fill="#17365B" d="M59.237,69.312v-6.369h4.229v0.97h-3.163v1.713h2.813v0.995h-2.813v1.695h3.285v0.996H59.237z"/>
			<path fill="#17365B" d="M68.489,69.312v-6.369h1.8c0.349,0,0.668,0.047,0.956,0.14c0.288,0.094,0.533,0.228,0.734,0.402
				c0.2,0.175,0.356,0.39,0.467,0.646c0.111,0.256,0.166,0.544,0.166,0.864c0,0.175-0.018,0.35-0.052,0.524
				c-0.035,0.175-0.091,0.344-0.166,0.507c-0.076,0.163-0.175,0.313-0.298,0.45c-0.122,0.137-0.268,0.255-0.437,0.354
				c0.128,0.204,0.254,0.403,0.376,0.599s0.246,0.392,0.371,0.59s0.255,0.401,0.389,0.611s0.279,0.437,0.438,0.682h-1.285
				c-0.262-0.407-0.51-0.794-0.742-1.157c-0.233-0.364-0.457-0.709-0.673-1.036h-0.087h-0.892v2.193H68.489z M69.554,66.114h0.856
				c0.221,0,0.404-0.038,0.55-0.114c0.146-0.075,0.263-0.167,0.35-0.275c0.088-0.107,0.148-0.224,0.184-0.349
				c0.035-0.126,0.053-0.24,0.053-0.346c0-0.099-0.017-0.211-0.048-0.336c-0.032-0.125-0.091-0.243-0.175-0.354
				c-0.085-0.11-0.2-0.203-0.346-0.279c-0.146-0.075-0.332-0.113-0.559-0.113h-0.865V66.114z"/>
			<path fill="#17365B" d="M77.891,69.312v-6.369h1.799c0.35,0,0.668,0.047,0.957,0.14c0.287,0.094,0.533,0.228,0.734,0.402
				c0.199,0.175,0.355,0.39,0.467,0.646c0.111,0.256,0.166,0.544,0.166,0.864c0,0.175-0.018,0.35-0.053,0.524
				s-0.09,0.344-0.166,0.507s-0.174,0.313-0.297,0.45s-0.268,0.255-0.438,0.354c0.129,0.204,0.254,0.403,0.377,0.599
				c0.121,0.195,0.246,0.392,0.371,0.59s0.254,0.401,0.389,0.611c0.133,0.21,0.279,0.437,0.438,0.682H81.35
				c-0.262-0.407-0.51-0.794-0.742-1.157c-0.234-0.364-0.457-0.709-0.674-1.036h-0.086h-0.893v2.193H77.891z M78.955,66.114h0.857
				c0.221,0,0.404-0.038,0.549-0.114c0.146-0.075,0.264-0.167,0.35-0.275c0.088-0.107,0.148-0.224,0.184-0.349
				c0.035-0.126,0.053-0.24,0.053-0.346c0-0.099-0.016-0.211-0.047-0.336c-0.033-0.125-0.092-0.243-0.176-0.354
				c-0.084-0.11-0.199-0.203-0.346-0.279c-0.145-0.075-0.332-0.113-0.559-0.113h-0.865V66.114z"/>
			<path fill="#17365B" d="M91.205,69.312c-0.018-0.041-0.049-0.113-0.092-0.219c-0.045-0.104-0.098-0.232-0.162-0.384
				s-0.135-0.319-0.211-0.503c-0.074-0.184-0.154-0.374-0.234-0.572h-2.193l-0.699,1.678h-1.057
				c0.023-0.053,0.078-0.182,0.166-0.389c0.086-0.207,0.195-0.463,0.326-0.769c0.133-0.307,0.277-0.646,0.438-1.022
				s0.324-0.759,0.494-1.149c0.168-0.39,0.334-0.772,0.494-1.148s0.305-0.717,0.436-1.022s0.24-0.562,0.328-0.769
				s0.143-0.337,0.166-0.389c0.023,0.052,0.08,0.182,0.17,0.389s0.201,0.463,0.332,0.769s0.277,0.646,0.438,1.022
				s0.324,0.759,0.494,1.148c0.168,0.391,0.332,0.773,0.492,1.149s0.307,0.716,0.438,1.022c0.131,0.306,0.24,0.562,0.328,0.769
				s0.143,0.336,0.166,0.389H91.205z M88.68,66.734h1.449L89.5,65.214c-0.006-0.006-0.02-0.045-0.043-0.118
				c-0.023-0.072-0.041-0.138-0.053-0.196c-0.012,0.059-0.029,0.124-0.053,0.196c-0.023,0.073-0.035,0.112-0.035,0.118L88.68,66.734
				z"/>
			<path fill="#17365B" d="M102.465,62.942v6.666c-0.041-0.052-0.131-0.148-0.27-0.288c-0.141-0.14-0.312-0.308-0.516-0.502
				c-0.205-0.195-0.43-0.411-0.678-0.647c-0.248-0.235-0.5-0.475-0.756-0.716c-0.256-0.242-0.506-0.479-0.752-0.712
				c-0.244-0.233-0.467-0.447-0.668-0.643s-0.369-0.361-0.506-0.498s-0.227-0.231-0.268-0.284c-0.006-0.011-0.029-0.042-0.068-0.092
				c-0.041-0.049-0.076-0.094-0.105-0.135l0.025,0.279v3.94H96.84v-6.657c0.039,0.052,0.131,0.146,0.27,0.283
				c0.141,0.138,0.312,0.302,0.516,0.494s0.43,0.401,0.678,0.629s0.498,0.459,0.756,0.694c0.256,0.236,0.506,0.47,0.75,0.699
				c0.246,0.23,0.469,0.439,0.674,0.629c0.203,0.189,0.373,0.352,0.512,0.485c0.137,0.134,0.225,0.227,0.266,0.279l0.166,0.245
				l-0.025-0.298v-3.853H102.465z"/>
			<path fill="#17365B" d="M107.779,69.312v-6.369h4.229v0.97h-3.164v1.713h2.814v0.995h-2.814v1.695h3.285v0.996H107.779z"/>
			<path fill="#17365B" d="M120.945,69.312c-0.018-0.041-0.049-0.113-0.092-0.219c-0.045-0.104-0.098-0.232-0.162-0.384
				s-0.135-0.319-0.211-0.503c-0.074-0.184-0.154-0.374-0.234-0.572h-2.193l-0.699,1.678h-1.057
				c0.023-0.053,0.078-0.182,0.166-0.389c0.086-0.207,0.195-0.463,0.326-0.769c0.133-0.307,0.277-0.646,0.438-1.022
				s0.324-0.759,0.494-1.149c0.168-0.39,0.334-0.772,0.494-1.148s0.305-0.717,0.436-1.022s0.24-0.562,0.328-0.769
				s0.143-0.337,0.166-0.389c0.023,0.052,0.08,0.182,0.17,0.389s0.201,0.463,0.332,0.769s0.277,0.646,0.438,1.022
				s0.324,0.759,0.494,1.148c0.168,0.391,0.332,0.773,0.492,1.149s0.307,0.716,0.438,1.022c0.131,0.306,0.24,0.562,0.328,0.769
				s0.143,0.336,0.166,0.389H120.945z M118.42,66.734h1.449l-0.629-1.521c-0.006-0.006-0.02-0.045-0.043-0.118
				c-0.023-0.072-0.041-0.138-0.053-0.196c-0.012,0.059-0.029,0.124-0.053,0.196c-0.023,0.073-0.035,0.112-0.035,0.118
				L118.42,66.734z"/>
			<path fill="#17365B" d="M132.207,62.942v6.666c-0.041-0.052-0.131-0.148-0.271-0.288c-0.139-0.14-0.311-0.308-0.516-0.502
				c-0.203-0.195-0.43-0.411-0.676-0.647c-0.248-0.235-0.5-0.475-0.756-0.716c-0.258-0.242-0.508-0.479-0.752-0.712
				c-0.244-0.233-0.467-0.447-0.668-0.643s-0.371-0.361-0.508-0.498s-0.225-0.231-0.266-0.284c-0.006-0.011-0.029-0.042-0.07-0.092
				c-0.041-0.049-0.076-0.094-0.105-0.135l0.027,0.279v3.94h-1.066v-6.657c0.041,0.052,0.131,0.146,0.271,0.283
				c0.139,0.138,0.311,0.302,0.516,0.494c0.203,0.192,0.428,0.401,0.676,0.629s0.5,0.459,0.756,0.694
				c0.256,0.236,0.508,0.47,0.752,0.699c0.244,0.23,0.469,0.439,0.672,0.629c0.205,0.189,0.375,0.352,0.512,0.485
				s0.227,0.227,0.266,0.279l0.166,0.245l-0.025-0.298v-3.853H132.207z"/>
		</g>
	</g>
	<g>
		<path fill="#17365B" d="M13.153,15.084c0.494,0.729,1.106,1.62,1.835,2.674c0.728,1.054,1.522,2.193,2.381,3.416
			c0.859,1.224,1.743,2.473,2.654,3.748c0.911,1.275,1.789,2.505,2.635,3.689c0.845,1.184,1.62,2.27,2.322,3.259
			s1.275,1.796,1.718,2.42c0.234-0.338,0.657-0.949,1.269-1.835c0.611-0.884,1.327-1.912,2.147-3.083
			c0.82-1.171,1.711-2.44,2.674-3.806c0.962-1.366,1.906-2.706,2.83-4.021c0.923-1.314,1.795-2.538,2.615-3.669
			s1.489-2.062,2.01-2.791v29.12h-2.811V24.335c0-0.234,0.013-0.481,0.039-0.742c0.026-0.26,0.039-0.481,0.039-0.664
			c-0.443,0.625-0.97,1.373-1.581,2.244c-0.612,0.873-1.256,1.803-1.932,2.791c-0.677,0.99-1.366,1.998-2.069,3.026
			s-1.379,2.023-2.03,2.985c-0.651,0.964-1.256,1.861-1.815,2.693c-0.56,0.834-1.022,1.522-1.386,2.069
			c-0.365-0.469-0.859-1.138-1.483-2.011c-0.625-0.871-1.308-1.847-2.049-2.927s-1.517-2.199-2.323-3.357
			c-0.807-1.157-1.555-2.245-2.245-3.259c-0.689-1.015-1.301-1.906-1.834-2.674c-0.534-0.767-0.892-1.294-1.073-1.581
			c0,0.182,0.02,0.404,0.059,0.664c0.039,0.26,0.058,0.507,0.058,0.742v19.869h-2.654V15.084z"/>
		<path fill="#17365B" d="M56.013,16.333h2.693v27.871h-2.693V16.333z"/>
		<path fill="#17365B" d="M98.211,16.333v29.159c-0.756-0.911-1.686-1.997-2.791-3.26c-1.107-1.262-2.303-2.608-3.592-4.04
			c-1.287-1.431-2.615-2.895-3.982-4.391c-1.365-1.497-2.686-2.96-3.961-4.392c-1.275-1.431-2.439-2.765-3.494-4.001
			c-1.053-1.236-1.92-2.309-2.596-3.22c-0.078-0.104-0.195-0.254-0.352-0.449c-0.156-0.195-0.299-0.383-0.43-0.566l0.117,1.249
			v21.782h-2.654V15.045c0.755,0.963,1.679,2.069,2.771,3.318c1.094,1.25,2.283,2.577,3.572,3.982s2.609,2.849,3.963,4.333
			c1.352,1.483,2.66,2.921,3.922,4.314c1.262,1.392,2.439,2.706,3.533,3.942s1.99,2.31,2.693,3.22
			c0.051,0.131,0.156,0.293,0.312,0.488s0.299,0.384,0.43,0.566l-0.117-1.288V16.333H98.211z"/>
		<path fill="#17365B" d="M114.02,44.204V16.333h17.564v2.42h-14.91v10.188h13.35v2.498h-13.35v10.267h15.457v2.498H114.02z
			 M121.475,14.538l3.553-5.231h2.303c-0.678,0.885-1.367,1.764-2.068,2.635c-0.703,0.872-1.406,1.737-2.107,2.596H121.475z"/>
	</g>
</g>
</svg>
